<svg xmlns="http://www.w3.org/2000/svg" viewBox="0 0 386.74 134.98"><defs><style>.cls-1{fill:#2e3192;}.cls-2{fill:#ed1c24;}.cls-3{fill:#231f20;}</style></defs><title>logo-dede</title><g id="Layer_2" data-name="Layer 2"><g id="Layer_1-2" data-name="Layer 1"><path class="cls-1" d="M283.6,47.42a45.24,45.24,0,0,0-20.81-18q-13.43-6.06-31.19-6.05H199.09v108.3H230a73.9,73.9,0,0,0,23.47-3.77,57.88,57.88,0,0,0,19.59-10.76,49.44,49.44,0,0,0,13.07-17.36A53.09,53.09,0,0,0,291,77Q290.83,59.53,283.6,47.42ZM263.1,76.75q0,13.19-8.13,21.39t-27.21,8.21V47.55q16.67.27,25.88,6.17,9,6.09,9.46,22.22ZM84.51,47.42a45.24,45.24,0,0,0-20.81-18q-13.43-6.06-31.19-6.05H0v108.3H30.92a73.9,73.9,0,0,0,23.47-3.77A57.88,57.88,0,0,0,74,117.11,49.44,49.44,0,0,0,87.05,99.75,53.09,53.09,0,0,0,91.87,77Q91.74,59.53,84.51,47.42ZM64,76.75q0,13.19-8.13,21.39t-27.21,8.21V47.55q16.67.27,25.88,6.17,9,6.09,9.46,22.22Z"/><path class="cls-2" d="M367.28,105.14a43.3,43.3,0,0,1-7.33,4,29.32,29.32,0,0,1-8.64,2.31h-1.74c-4,0-7.08-.56-9.21-1.66-2.58-1.23-4.22-2.31-4.93-3.2l51.31-32.56a46.94,46.94,0,0,0-3.2-5.77,51.19,51.19,0,0,0-7.58-9,43.9,43.9,0,0,0-13.86-8.48,40.06,40.06,0,0,0-13.86-2.4c-1.78,0-3.6.09-5.46.25A41.74,41.74,0,0,0,323,56a43.54,43.54,0,0,0-18.52,35.63v.56a42.08,42.08,0,0,0,6.13,21.93A41.41,41.41,0,0,0,327,129.46,44.82,44.82,0,0,0,349,135h.55a46.51,46.51,0,0,0,15.73-3A74.75,74.75,0,0,0,377,126.51c2.93-1.8,5-3.14,6.15-4l-12.79-19.78C370.37,102.89,369.34,103.7,367.28,105.14ZM333.83,76.52a17.78,17.78,0,0,1,13.86-6.32,18.18,18.18,0,0,1,6.28.94,16.8,16.8,0,0,1,3.31,1.62L328.1,91.14A21.36,21.36,0,0,1,333.83,76.52ZM168.19,105.14a43.3,43.3,0,0,1-7.33,4,29.32,29.32,0,0,1-8.64,2.31h-1.74c-4,0-7.08-.56-9.21-1.66-2.58-1.23-4.22-2.31-4.93-3.2l51.31-32.56a45.6,45.6,0,0,0-3.2-5.77,51.19,51.19,0,0,0-7.58-9A43.9,43.9,0,0,0,163,50.78a40.06,40.06,0,0,0-13.86-2.4c-1.78,0-3.6.09-5.46.25A41.74,41.74,0,0,0,123.94,56a43.54,43.54,0,0,0-18.52,35.63v.56a42.08,42.08,0,0,0,6.13,21.93,41.41,41.41,0,0,0,16.39,15.31,44.82,44.82,0,0,0,22,5.52h.55a46.51,46.51,0,0,0,15.73-3,74.75,74.75,0,0,0,11.71-5.51c2.93-1.8,5-3.14,6.15-4l-12.79-19.78C171.28,102.89,170.25,103.7,168.19,105.14ZM134.74,76.52A17.78,17.78,0,0,1,148.6,70.2a18.18,18.18,0,0,1,6.28.94,16.8,16.8,0,0,1,3.31,1.62L129,91.14A21.36,21.36,0,0,1,134.74,76.52Z"/><path class="cls-3" d="M300.14,30.22a4.92,4.92,0,0,0-3.61-1.45,4.92,4.92,0,0,0-5,5A4.94,4.94,0,0,0,293,37.37a4.78,4.78,0,0,0,3.54,1.47,4.86,4.86,0,0,0,3.6-1.47,4.92,4.92,0,0,0,1.46-3.59A4.85,4.85,0,0,0,300.14,30.22Z"/><path class="cls-3" d="M316,1.4a4.79,4.79,0,0,0-3.5-1.4A4.73,4.73,0,0,0,309,1.42a4.67,4.67,0,0,0-1.44,3.44A4.82,4.82,0,0,0,309,8.35a4.82,4.82,0,0,0,6.91,0,4.77,4.77,0,0,0,1.43-3.51A4.7,4.7,0,0,0,316,1.4ZM308,12.71V37.87h8.89V12.71Z"/><path class="cls-3" d="M342.13,12.2c-.36,0-.71,0-1.06,0a9,9,0,0,0-5.43,1.62,10.63,10.63,0,0,0-3.54,4.86V12.71h-8.37V37.87h8.82V27.45a8.18,8.18,0,0,1,1.75-5.61,6.35,6.35,0,0,1,5-2,9.64,9.64,0,0,1,1.49.12,10.34,10.34,0,0,1,1.57.4l.85-8.07C342.84,12.26,342.48,12.22,342.13,12.2Z"/></g></g></svg>