<svg width="16" height="16" viewBox="0 0 16 16" fill="none" xmlns="http://www.w3.org/2000/svg">
<path d="M14.656 6.66671C14.6313 5.79271 14.5487 5.23537 14.2687 4.76004C13.87 4.08337 13.1527 3.70671 11.7187 2.95471L10.3853 2.25471C9.21467 1.64071 8.62933 1.33337 8 1.33337C7.37067 1.33337 6.78533 1.64004 5.61467 2.25471L4.28133 2.95471C2.84733 3.70671 2.13 4.08337 1.73133 4.76004C1.33333 5.43604 1.33333 6.27804 1.33333 7.96004V8.03804C1.33333 9.72137 1.33333 10.5634 1.73133 11.2394C2.13 11.916 2.84733 12.2927 4.28133 13.0454L5.61467 13.7447C6.78533 14.3594 7.37067 14.6667 8 14.6667C8.62933 14.6667 9.21467 14.36 10.3853 13.7454L11.7187 13.0454C13.1527 12.2927 13.87 11.9167 14.2687 11.24C14.5487 10.7647 14.6313 10.2074 14.656 9.33337M14 5.00004L11.3333 6.33337M11.3333 6.33337L11 6.50004L8 8.00004M11.3333 6.33337V8.66671M11.3333 6.33337L5 3.00004M8 8.00004L2 5.00004M8 8.00004V14.3334" stroke="#979797" stroke-width="1.5" stroke-linecap="round"/>
</svg>
